HIERARCHY
ROOT Hips
{
	OFFSET 0.00000 0.00000 0.00000
	CHANNELS 6 Xposition Yposition Zposition Zrotation Yrotation Xrotation 
	JOINT LHipJoint
	{
		OFFSET 0 0 0
		CHANNELS 3 Zrotation Yrotation Xrotation
		JOINT LeftHip
		{
			OFFSET 1.41496 -1.84582 0.78394
			CHANNELS 3 Zrotation Yrotation Xrotation
			JOINT LeftKnee
			{
				OFFSET 2.58040 -7.08960 0.00000
				CHANNELS 3 Zrotation Yrotation Xrotation
				JOINT LeftAnkle
				{
					OFFSET 2.64719 -7.27309 0.00000
					CHANNELS 3 Zrotation Yrotation Xrotation
					JOINT LeftToe
					{
						OFFSET 0.20718 -0.56921 2.20259
						CHANNELS 3 Zrotation Yrotation Xrotation
						End Site
						{
							OFFSET 0.00000 -0.00000 1.14243
						}
					}
				}
			}
		}
	}
	JOINT RHipJoint
	{
		OFFSET 0 0 0
		CHANNELS 3 Zrotation Yrotation Xrotation
		JOINT RightHip
		{
			OFFSET -1.40551 -1.84582 0.78394
			CHANNELS 3 Zrotation Yrotation Xrotation
			JOINT RightKnee
			{
				OFFSET -2.56572 -7.04926 0.00000
				CHANNELS 3 Zrotation Yrotation Xrotation
				JOINT RightAnkle
				{
					OFFSET -2.57974 -7.08778 0.00000
					CHANNELS 3 Zrotation Yrotation Xrotation
					JOINT RightToe
					{
						OFFSET -0.26704 -0.73369 2.20815
						CHANNELS 3 Zrotation Yrotation Xrotation
						End Site
						{
							OFFSET -0.00000 -0.00000 1.16246
						}
					}
				}
			}
		}
	}
	JOINT lowerback
	{
		OFFSET 0 0 0
		CHANNELS 3 Zrotation Yrotation Xrotation
		JOINT Chest
		{
			OFFSET -0.04690 2.05196 -0.07017
			CHANNELS 3 Zrotation Yrotation Xrotation
			JOINT Chest2
			{
				OFFSET 0.04085 2.05260 0.00800
				CHANNELS 3 Zrotation Yrotation Xrotation
				JOINT lowerneck
				{
					OFFSET 0 0 0
					CHANNELS 3 Zrotation Yrotation Xrotation
					JOINT Neck
					{
						OFFSET -0.03582 1.80995 0.19301
						CHANNELS 3 Zrotation Yrotation Xrotation
						JOINT Head
						{
							OFFSET 0.00952 1.80195 -0.36389
							CHANNELS 3 Zrotation Yrotation Xrotation
							End Site
							{
								OFFSET 0.00392 1.85062 -0.14494
							}
						}
					}
				}
				JOINT LeftCollar
				{
					OFFSET 0 0 0
					CHANNELS 3 Zrotation Yrotation Xrotation
					JOINT LeftShoulder
					{
						OFFSET 3.55224 1.39726 -0.13667
CHANNELS 3 Zrotation Xrotation Yrotation
						JOINT LeftElbow
						{
OFFSET 0 -5.145070 -0.000000
CHANNELS 3 Zrotation Xrotation Yrotation
							JOINT LeftWrist
							{
OFFSET 0 -3.506460 0.000000
CHANNELS 3 Zrotation Xrotation Yrotation
								JOINT lhand
								{
									OFFSET 0 0 0
CHANNELS 3 Zrotation Xrotation Yrotation
									JOINT LFingers
									{
OFFSET 0 -0.629970 0.000000
CHANNELS 3 Zrotation Xrotation Yrotation
										End Site
										{
OFFSET 0 -0.507900 0.000000
										}
									}
								}
								JOINT LThumb
								{
OFFSET 0 0.000000 0.000000
CHANNELS 3 Zrotation Xrotation Yrotation
									End Site
									{
OFFSET 0 -0.515650 0.515650
									}
								}
							}
						}
					}
				}
				JOINT RightCollar
				{
					OFFSET 0 0 0
					CHANNELS 3 Zrotation Yrotation Xrotation
					JOINT RightShoulder
					{
						OFFSET -3.06467 1.61290 -0.28813
CHANNELS 3 Zrotation Xrotation Yrotation
						JOINT RightElbow
						{
OFFSET 0 -5.232000 -0.000000
CHANNELS 3 Zrotation Xrotation Yrotation
							JOINT RightWrist
							{
OFFSET 0 -3.656410 0.000000
CHANNELS 3 Zrotation Xrotation Yrotation
								JOINT rhand
								{
									OFFSET 0 0 0
CHANNELS 3 Zrotation Xrotation Yrotation
									JOINT RFingers
									{
OFFSET 0 -0.656810 0.000000
CHANNELS 3 Zrotation Xrotation Yrotation
										End Site
										{
OFFSET 0 -0.529530 0.000000
										}
									}
								}
								JOINT RThumb
								{
OFFSET 0 0.000000 0.000000
CHANNELS 3 Zrotation Xrotation Yrotation
									End Site
									{
OFFSET 0 -0.537620 0.537620
									}
								}
							}
						}
					}
				}
			}
		}
	}
}
MOTION
Frames: 12
Frame Time: 0.008333333333333333
-6.617306 8.346821 -3.481022 -13.966327 72.738735 -13.292064 0.000000 0.000000 0.000000 33.854674 29.602778 -81.135494 33.482039 14.911918 132.973713 -7.484822 -53.962227 -16.370855 1.306737 -7.239699 -20.428261 0.000000 0.000000 0.000000 -20.773951 -22.866450 -83.104118 -30.626043 -17.041798 122.626319 -1.518837 16.906115 -23.465807 -4.798488 13.153138 -39.944655 -4.971976 -3.746320 66.361508 1.387522 -4.213090 13.421576 5.320591 -1.176503 -5.914920 -14.822830 -19.012707 9.361848 23.509832 -25.933340 -13.727298 9.062664 -13.921925 -0.366961 0.000000 0.000000 0.000000 64.076511 -5.181968 4.333430 89.484773 -59.998973 59.553834 26.158189 -6.313746 5.639535 0.000000 0.000000 0.000000 -7.125000 0.000000 0.000000 -0.404936 23.701623 -0.208074 0.000000 0.000000 0.000000 -18.379808 -6.328322 12.019109 -100.157187 -59.606493 -68.784695 -25.796458 -13.974418 9.593270 0.000000 0.000000 0.000000 7.125000 0.000000 0.000000 1.039109 40.609733 0.112760
-6.633773 8.333019 -3.393778 -12.915320 72.997356 -12.182266 0.000000 0.000000 0.000000 33.942567 28.987360 -80.905153 33.379438 15.003643 132.576230 -7.282097 -53.788732 -16.795508 1.405836 -7.498385 -21.201310 0.000000 0.000000 0.000000 -20.704245 -23.249531 -83.620660 -30.839236 -16.909571 123.356347 -1.640665 16.387990 -24.083209 -4.759323 13.107432 -39.772097 -4.943120 -3.943870 66.483343 1.282472 -4.412840 13.382264 5.272305 -1.245402 -5.947923 -14.811884 -19.138156 9.401512 23.508508 -26.115161 -13.705315 9.039083 -14.014570 -0.336274 0.000000 0.000000 0.000000 64.167224 -5.025639 4.089171 89.265209 -59.997892 59.363655 26.058859 -6.233782 5.665341 0.000000 0.000000 0.000000 -7.125000 0.000000 0.000000 -0.479432 23.678298 -0.246560 0.000000 0.000000 0.000000 -18.357858 -6.533425 11.871981 -100.351638 -59.591137 -68.952450 -26.112232 -13.975903 9.660297 0.000000 0.000000 0.000000 7.125000 0.000000 0.000000 0.766085 40.712721 0.081205
-6.650383 8.322086 -3.306778 -11.915066 73.248126 -11.068425 0.000000 0.000000 0.000000 34.023083 28.358148 -80.728765 33.270233 15.099930 132.155508 -7.073946 -53.588491 -17.202416 1.511133 -7.762418 -21.995258 0.000000 0.000000 0.000000 -20.555068 -23.629640 -84.204453 -31.047693 -16.776650 124.075499 -1.749635 15.857729 -24.624391 -4.705401 13.044189 -39.534051 -4.879063 -4.157164 66.538031 1.185278 -4.606246 13.356220 5.216164 -1.312859 -5.970756 -14.802564 -19.257103 9.446031 23.510156 -26.286761 -13.701964 9.019817 -14.102770 -0.312862 0.000000 0.000000 0.000000 64.221617 -4.882374 3.853035 89.012568 -59.996230 59.144837 25.897406 -6.212085 5.664667 0.000000 0.000000 0.000000 -7.125000 0.000000 0.000000 -0.599164 23.687678 -0.307942 0.000000 0.000000 0.000000 -18.347217 -6.726430 11.731546 -100.549311 -59.575276 -69.122938 -26.400442 -14.012011 9.737261 0.000000 0.000000 0.000000 7.125000 0.000000 0.000000 0.517686 40.824709 0.053398
-6.667136 8.313880 -3.219849 -10.938933 73.488057 -9.924075 0.000000 0.000000 0.000000 34.091036 27.726568 -80.606791 33.154926 15.200023 131.714111 -6.862564 -53.362408 -17.587143 1.623107 -8.032265 -22.812321 0.000000 0.000000 0.000000 -20.342575 -24.000776 -84.846035 -31.249331 -16.644590 124.776059 -1.849128 15.327181 -25.115108 -4.647961 12.976065 -39.278991 -4.790168 -4.377350 66.521363 1.098349 -4.790105 13.345109 5.157869 -1.378162 -5.981099 -14.795469 -19.371384 9.488683 23.512378 -26.450105 -13.717350 9.003064 -14.186879 -0.295767 0.000000 0.000000 0.000000 64.233583 -4.752964 3.630969 88.734515 -59.993923 58.904051 25.679528 -6.232600 5.640734 0.000000 0.000000 0.000000 -7.125000 0.000000 0.000000 -0.760029 23.725629 -0.389999 0.000000 0.000000 0.000000 -18.352944 -6.906442 11.600084 -100.756675 -59.558266 -69.301754 -26.664818 -14.080135 9.820685 0.000000 0.000000 0.000000 7.125000 0.000000 0.000000 0.290320 40.942153 0.029038
-6.683974 8.309653 -3.133005 -9.884675 73.712837 -8.656149 0.000000 0.000000 0.000000 34.114976 27.089993 -80.520790 33.031917 15.304855 131.246644 -6.650759 -53.102468 -17.931919 1.737788 -8.296187 -23.617957 0.000000 0.000000 0.000000 -20.117640 -24.344149 -85.514278 -31.437426 -16.517608 125.435737 -1.934572 14.869678 -25.543698 -4.580872 12.895583 -38.979071 -4.705590 -4.586786 66.437829 1.020561 -4.964145 13.348555 5.107954 -1.442112 -5.977307 -14.783381 -19.477116 9.535145 23.514008 -26.598806 -13.760582 8.990288 -14.264385 -0.290691 0.000000 0.000000 0.000000 64.195019 -4.629394 3.432263 88.436487 -59.990684 58.645999 25.411542 -6.276475 5.592170 0.000000 0.000000 0.000000 -7.125000 0.000000 0.000000 -0.957629 23.793036 -0.489915 0.000000 0.000000 0.000000 -18.373145 -7.075874 11.486397 -100.969456 -59.540410 -69.485140 -26.906257 -14.168234 9.908680 0.000000 0.000000 0.000000 7.125000 0.000000 0.000000 0.083015 41.063067 0.008148
-6.700813 8.309180 -3.045951 -8.713254 73.927651 -7.247823 0.000000 0.000000 0.000000 34.088068 26.442502 -80.447834 32.901610 15.413940 130.755011 -6.442596 -52.817162 -18.235633 1.850884 -8.546939 -24.388914 0.000000 0.000000 0.000000 -19.912916 -24.669019 -86.171706 -31.611364 -16.397408 126.049786 -2.009920 14.507413 -25.932971 -4.504292 12.802639 -38.634395 -4.638654 -4.783215 66.317455 0.947421 -5.135143 13.360208 5.069551 -1.506608 -5.964259 -14.765704 -19.573158 9.584168 23.516474 -26.731727 -13.824774 8.981409 -14.334744 -0.295550 0.000000 0.000000 0.000000 64.117462 -4.505180 3.258470 88.116246 -59.986454 58.368705 25.131774 -6.327031 5.539156 0.000000 0.000000 0.000000 -7.125000 0.000000 0.000000 -1.164075 23.865641 -0.593583 0.000000 0.000000 0.000000 -18.399027 -7.237769 11.394270 -101.183834 -59.522055 -69.669903 -27.125734 -14.256250 9.994266 0.000000 0.000000 0.000000 7.125000 0.000000 0.000000 -0.105442 41.179668 -0.009764
-6.717596 8.312914 -2.958518 -7.411711 74.133866 -5.694154 0.000000 0.000000 0.000000 34.005365 25.779676 -80.378103 32.763828 15.527228 130.238627 -6.240013 -52.506194 -18.492580 1.959068 -8.779030 -25.107379 0.000000 0.000000 0.000000 -19.734828 -24.974162 -86.810640 -31.770833 -16.284853 126.616515 -2.075971 14.235120 -26.283412 -4.418872 12.697541 -38.247102 -4.592695 -4.965087 66.170865 0.880839 -5.302605 13.378465 5.045770 -1.571506 -5.942878 -14.744257 -19.659536 9.634077 23.521125 -26.848881 -13.909507 8.976710 -14.397937 -0.309508 0.000000 0.000000 0.000000 63.998229 -4.383203 3.111208 87.771946 -59.981064 58.070556 24.860262 -6.370328 5.483609 0.000000 0.000000 0.000000 -7.125000 0.000000 0.000000 -1.364596 23.940210 -0.693531 0.000000 0.000000 0.000000 -18.432349 -7.391365 11.321783 -101.396047 -59.503481 -69.852790 -27.323493 -14.334198 10.070364 0.000000 0.000000 0.000000 7.125000 0.000000 0.000000 -0.275693 41.283920 -0.025140
-6.734103 8.320975 -2.870576 -5.982592 74.335341 -4.004455 0.000000 0.000000 0.000000 33.866819 25.098306 -80.307420 32.618155 15.644783 129.696436 -6.045914 -52.171646 -18.696323 2.059463 -8.987933 -25.758290 0.000000 0.000000 0.000000 -19.573961 -25.273929 -87.424881 -31.916538 -16.179968 127.137711 -2.139019 14.008029 -26.623409 -4.336953 12.595535 -37.873083 -4.563045 -5.135726 66.010666 0.822666 -5.466543 13.399896 5.036800 -1.636430 -5.916776 -14.719299 -19.737249 9.684002 23.527919 -26.951804 -14.012950 8.975734 -14.454662 -0.331554 0.000000 0.000000 0.000000 63.836649 -4.268015 2.988525 87.402851 -59.974304 57.750956 24.618666 -6.402556 5.430645 0.000000 0.000000 0.000000 -7.125000 0.000000 0.000000 -1.543152 24.010083 -0.781901 0.000000 0.000000 0.000000 -18.479943 -7.532463 11.263577 -101.603179 -59.485052 -70.031267 -27.500351 -14.398923 10.134587 0.000000 0.000000 0.000000 7.125000 0.000000 0.000000 -0.428579 41.373176 -0.038267
-6.750184 8.333390 -2.782067 -4.442998 74.533980 -2.201003 0.000000 0.000000 0.000000 33.677390 24.399291 -80.231707 32.464164 15.766640 129.127461 -5.858872 -51.814546 -18.854081 2.151483 -9.174088 -26.341955 0.000000 0.000000 0.000000 -19.416247 -25.577689 -88.010185 -32.049630 -16.082391 127.616661 -2.203300 13.788942 -26.971801 -4.265733 12.505738 -37.545528 -4.541928 -5.299417 65.848293 0.774124 -5.626543 13.420940 5.040543 -1.700637 -5.890102 -14.692112 -19.807467 9.732130 23.536665 -27.042476 -14.130714 8.977748 -14.505667 -0.359636 0.000000 0.000000 0.000000 63.632517 -4.163953 2.888636 87.005914 -59.965894 57.407319 24.426461 -6.425256 5.385737 0.000000 0.000000 0.000000 -7.125000 0.000000 0.000000 -1.685304 24.068468 -0.851794 0.000000 0.000000 0.000000 -18.544631 -7.656519 11.215571 -101.803243 -59.466979 -70.203608 -27.654909 -14.447495 10.184908 0.000000 0.000000 0.000000 7.125000 0.000000 0.000000 -0.562880 41.444849 -0.049320
-6.765828 8.350193 -2.692955 -2.821861 74.729258 -0.316036 0.000000 0.000000 0.000000 33.446403 23.687411 -80.145641 32.301516 15.892731 128.531037 -5.674807 -51.435920 -18.982345 2.236142 -9.341350 -26.869299 0.000000 0.000000 0.000000 -19.248010 -25.884763 -88.565167 -32.171386 -15.991624 128.057159 -2.268504 13.566649 -27.325344 -4.202219 12.424699 -37.251574 -4.520568 -5.460884 65.691906 0.735189 -5.782440 13.439035 5.053064 -1.763487 -5.866108 -14.666845 -19.870633 9.775292 23.548429 -27.122184 -14.256009 8.982342 -14.551217 -0.390339 0.000000 0.000000 0.000000 63.385400 -4.073101 2.811740 86.577529 -59.955545 57.036524 24.296829 -6.442024 5.350941 0.000000 0.000000 0.000000 -7.125000 0.000000 0.000000 -1.781239 24.112677 -0.898577 0.000000 0.000000 0.000000 -18.622116 -7.760587 11.177871 -101.995327 -59.449272 -70.369021 -27.783227 -14.474864 10.218171 0.000000 0.000000 0.000000 7.125000 0.000000 0.000000 -0.675140 41.494794 -0.058386
-6.780957 8.371476 -2.603034 -1.154741 74.923801 1.613666 0.000000 0.000000 0.000000 33.185445 22.966423 -80.047087 32.129538 16.023081 127.905526 -5.499924 -51.044954 -19.072266 2.311104 -9.486060 -27.327963 0.000000 0.000000 0.000000 -19.050390 -26.203074 -89.091869 -32.282932 -15.907174 128.462913 -2.334662 13.333044 -27.682633 -4.145463 12.351446 -36.986855 -4.486207 -5.630724 65.546170 0.703819 -5.937750 13.452797 5.068449 -1.825969 -5.846961 -14.652228 -19.924910 9.810081 23.567832 -27.189624 -14.381231 8.990462 -14.590451 -0.419059 0.000000 0.000000 0.000000 63.093842 -3.992754 2.760113 86.122627 -59.943066 56.642737 24.233748 -6.457837 5.319229 0.000000 0.000000 0.000000 -7.125000 0.000000 0.000000 -1.827738 24.150201 -0.920459 0.000000 0.000000 0.000000 -18.706138 -7.842986 11.156331 -102.179698 -59.432006 -70.527750 -27.880840 -14.476745 10.232189 0.000000 0.000000 0.000000 7.125000 0.000000 0.000000 -0.761471 41.520351 -0.065395
-6.795256 8.396743 -2.512284 0.497029 75.114693 3.542704 0.000000 0.000000 0.000000 32.911627 22.261697 -79.949944 31.946941 16.157829 127.246908 -5.347857 -50.655896 -19.094813 2.371629 -9.600486 -27.692619 0.000000 0.000000 0.000000 -18.788881 -26.530679 -89.615252 -32.385849 -15.827868 128.839626 -2.400571 13.075543 -28.035524 -4.096257 12.287403 -36.756404 -4.412351 -5.824626 65.392551 0.671952 -6.096378 13.461414 5.068651 -1.888535 -5.836526 -14.649892 -19.970475 9.830183 23.593706 -27.245697 -14.493261 8.999993 -14.623212 -0.440975 0.000000 0.000000 0.000000 62.758807 -3.921202 2.736281 85.638768 -59.927848 56.223975 24.231568 -6.492899 5.298802 0.000000 0.000000 0.000000 -7.125000 0.000000 0.000000 -1.829017 24.172624 -0.920104 0.000000 0.000000 0.000000 -18.782611 -7.891781 11.159019 -102.359340 -59.414823 -70.682413 -27.937383 -14.444441 10.230194 0.000000 0.000000 0.000000 7.125000 0.000000 0.000000 -0.812207 41.523921 -0.069666
